<svg width="22" height="30" viewBox="0 0 22 30" fill="none" xmlns="http://www.w3.org/2000/svg">
<path d="M21.1953 11.1431C21.1953 5.52158 16.6215 0.947754 11 0.947754C5.37852 0.947754 0.804688 5.52158 0.804688 11.1431C0.804688 16.328 4.69531 20.6218 9.71094 21.2569V23.0962H7.60156C7.25968 23.0962 6.9318 23.232 6.69006 23.4737C6.44831 23.7155 6.3125 24.0434 6.3125 24.3853C6.3125 24.7271 6.44831 25.055 6.69006 25.2968C6.9318 25.5385 7.25968 25.6743 7.60156 25.6743H9.71094V27.7837C9.71094 28.1256 9.84675 28.4534 10.0885 28.6952C10.3302 28.9369 10.6581 29.0728 11 29.0728C11.3419 29.0728 11.6698 28.9369 11.9115 28.6952C12.1532 28.4534 12.2891 28.1256 12.2891 27.7837V25.6743H14.3984C14.7403 25.6743 15.0682 25.5385 15.3099 25.2968C15.5517 25.055 15.6875 24.7271 15.6875 24.3853C15.6875 24.0434 15.5517 23.7155 15.3099 23.4737C15.0682 23.232 14.7403 23.0962 14.3984 23.0962H12.2891V21.2569C17.3047 20.6218 21.1953 16.328 21.1953 11.1431ZM3.38281 11.1431C3.38281 6.94307 6.8 3.52588 11 3.52588C15.2 3.52588 18.6172 6.94307 18.6172 11.1431C18.6172 15.3431 15.2 18.7603 11 18.7603C6.8 18.7603 3.38281 15.3431 3.38281 11.1431Z" fill="black"/>
</svg>
