<svg width="26" height="25" viewBox="0 0 26 25" fill="none" xmlns="http://www.w3.org/2000/svg">
<path d="M23.8983 0.118164H18.6249C18.283 0.118164 17.9551 0.253929 17.7134 0.495592C17.4717 0.737256 17.3358 1.06502 17.3358 1.40679C17.3358 1.74855 17.4717 2.07631 17.7134 2.31798C17.9551 2.55964 18.283 2.69541 18.6249 2.69541H20.7864L17.2479 6.23267C13.2524 3.13647 7.46279 3.42113 3.79834 7.08609C-0.17666 11.0603 -0.17666 17.5257 3.80068 21.4976C5.71409 23.4046 8.3058 24.4755 11.0077 24.4755C13.7096 24.4755 16.3013 23.4046 18.2147 21.4976C21.881 17.832 22.1657 12.0467 19.0685 8.05256L22.6093 4.51763V6.67842C22.6093 7.02018 22.7451 7.34795 22.9868 7.58961C23.2286 7.83127 23.5565 7.96704 23.8983 7.96704C24.2402 7.96704 24.5681 7.83127 24.8098 7.58961C25.0516 7.34795 25.1874 7.02018 25.1874 6.67842V1.40679C25.1874 1.23756 25.1541 1.06999 25.0893 0.913651C25.0245 0.757308 24.9295 0.615252 24.8098 0.495592C24.6901 0.375933 24.548 0.281014 24.3916 0.216255C24.2352 0.151495 24.0676 0.118164 23.8983 0.118164ZM16.3937 19.6771C14.9642 21.1031 13.0272 21.904 11.0077 21.904C8.98824 21.904 7.05125 21.1031 5.62178 19.6771C2.65166 16.7086 2.65166 11.8774 5.62178 8.9089C8.59189 5.94039 13.4241 5.9398 16.3937 8.9089C19.3632 11.878 19.3638 16.7086 16.3937 19.6771Z" fill="black"/>
</svg>
